<?xml version="1.0" standalone="no"?>
<!DOCTYPE svg PUBLIC "-//W3C//DTD SVG 20010904//EN"
 "http://www.w3.org/TR/2001/REC-SVG-20010904/DTD/svg10.dtd">
<svg version="1.0" xmlns="http://www.w3.org/2000/svg"
 width="119.000000pt" height="119.000000pt" viewBox="0 0 119.000000 119.000000"
 preserveAspectRatio="xMidYMid meet">
<metadata>
Created by potrace 1.11, written by Peter Selinger 2001-2013
</metadata>
<g transform="translate(0.000000,119.000000) scale(0.100000,-0.100000)"
fill="#000000" stroke="none">
<path d="M277 1179 c-11 -6 -25 -27 -33 -45 -13 -31 -13 -39 1 -68 17 -36 56
-58 90 -52 11 3 23 5 26 5 3 1 15 10 27 21 33 31 30 93 -4 125 -29 27 -75 32
-107 14z"/>
<path d="M829 1183 c-20 -5 -49 -55 -49 -86 0 -85 126 -112 166 -36 38 74 -31
146 -117 122z"/>
<path d="M360 912 c-40 -41 -41 -83 -1 -123 40 -40 82 -39 123 1 26 27 30 36
25 67 -8 47 -33 72 -80 80 -31 5 -40 1 -67 -25z"/>
<path d="M760 928 c-28 -15 -50 -52 -50 -86 0 -35 52 -82 90 -82 42 0 90 47
90 89 0 62 -75 107 -130 79z"/>
<path d="M544 724 c-69 -29 -101 -114 -67 -181 45 -93 172 -101 230 -14 72
107 -43 245 -163 195z m106 -98 c13 -23 13 -29 0 -53 -23 -41 -82 -45 -106 -8
-21 33 -10 74 25 91 31 16 62 4 81 -30z"/>
<path d="M360 432 c-62 -23 -75 -111 -23 -152 74 -58 177 27 133 110 -18 33
-76 55 -110 42z"/>
<path d="M747 433 c-61 -9 -83 -107 -33 -150 83 -71 197 40 124 121 -25 27
-49 35 -91 29z"/>
<path d="M260 155 c-15 -16 -23 -37 -23 -59 0 -40 14 -61 55 -82 24 -12 32
-13 62 0 40 16 56 42 56 86 0 72 -99 109 -150 55z"/>
<path d="M813 165 c-48 -34 -37 -126 18 -149 42 -18 74 -9 105 27 30 36 27 77
-8 114 -25 27 -82 31 -115 8z"/>
</g>
</svg>
